<?xml version="1.0" standalone="no"?><!DOCTYPE svg PUBLIC "-//W3C//DTD SVG 1.1//EN" "http://www.w3.org/Graphics/SVG/1.1/DTD/svg11.dtd"><svg t="1561942789843" class="icon" viewBox="0 0 1024 1024" version="1.1" xmlns="http://www.w3.org/2000/svg" p-id="1554" xmlns:xlink="http://www.w3.org/1999/xlink" width="200" height="200"><defs><style type="text/css"></style></defs><path d="M304.672 403.904c10.704-2.736 15.664-9.968 14.864-21.68a244.992 244.992 0 0 1-0.16-11.728c0.064-2.256 0.368-4.56 0.896-6.944 0.544-2.368 1.584-5.104 3.152-8.192 1.552-3.088 3.728-6.768 6.528-11.04a1008.4 1008.4 0 0 0 21.008-32.256c3.824-6.304 6.704-13.376 8.656-21.2 1.968-7.84 1.776-16.32-0.544-25.472a59.36 59.36 0 0 0-17.904-29.792c-8.976-8.24-20.16-13.728-33.488-16.448-13.344-2.72-27.776-2.096-43.312 1.872-16.72 4.272-30.464 11.456-41.248 21.536-10.8 10.096-18.128 21.216-22 33.376-3.872 12.16-4.528 23.36-1.936 33.568 1.248 4.944 4.48 9.024 9.68 12.224 5.2 3.2 10.816 4.032 16.8 2.496 10.176-2.608 15.536-10.448 16.112-23.536 0.912-12.608 3.392-22.608 7.456-30 4.064-7.392 11.984-12.592 23.76-15.616 10.064-2.576 19.04-1.712 26.912 2.576 7.856 4.288 12.896 10.736 15.072 19.344a25.6 25.6 0 0 1-0.016 13.056c-1.136 4.32-2.848 8.384-5.12 12.224-2.272 3.856-6.08 9.664-11.408 17.44-6.08 8.896-10.784 16.432-14.128 22.608a61.392 61.392 0 0 0-6.672 20.256c-1.104 7.328-0.512 15.52 1.776 24.544 1.824 7.2 5.104 12.16 9.824 14.848 4.704 2.736 9.856 3.36 15.44 1.936zM992 556.96c0-144.992-157.936-262.96-352.064-262.96-130.32 0-244.24 53.2-305.104 132.016a23.84 23.84 0 0 0-5.872-5.28 23.792 23.792 0 0 0-18.8-2.592 24.704 24.704 0 0 0-15.6 11.376 23.792 23.792 0 0 0-2.736 18.896c1.936 7.648 5.872 12.96 11.824 15.968 1.904 0.96 3.904 1.296 5.872 1.776-14 28.32-21.648 58.896-21.648 90.8 0 95.024 68.864 182.928 179.712 229.408 52.32 21.936 111.92 33.536 172.352 33.536 12.88 0 26.368-0.672 42.24-2.112C750.848 855.824 824.896 880 846.208 880c10 0 13.152-5.232 14.16-8.368 2.848-8.928-5.84-15.168-9.536-17.824-16.544-11.872-36.416-33.76-55.536-60.992C915.232 748.752 992 657.264 992 556.96zM777.04 778.512l-12.096 4.032 7.056 10.656c16.976 25.664 34.624 47.296 51.088 62.816-30.192-8.192-82-27.6-134.08-56.768l-2.64-1.472-3.024 0.288a455.632 455.632 0 0 1-43.408 2.32c-57.888 0-114.88-11.088-164.864-32.048-103.472-43.376-167.744-124.384-167.744-211.36 0-134.224 149.2-243.424 332.608-243.424s332.608 109.2 332.608 243.424c0 95.056-76.752 182.016-195.504 221.536z" fill="" p-id="1555"></path><path d="M228.352 531.744l-3.792 3.712c-17.952 17.472-41.792 31.408-60.048 40.048a216.608 216.608 0 0 0 22.992-46.976l2.896-8.704-8.464-3.456c-79.088-32.304-127.824-89.024-130.368-151.728-2.032-49.856 24.56-98.16 74.864-135.984 51.392-38.656 121.056-61.648 196.176-64.736 114.48-4.864 218.064 37.984 263.728 108.816l16.32-10.624c-49.328-76.512-159.76-122.72-280.848-117.728-78.992 3.248-152.528 27.616-207.04 68.608-55.6 41.824-84.96 95.968-82.656 152.448 2.768 68.176 52.576 129.456 133.808 165.344-8.512 21.28-22.528 43.824-33.376 53.04-1.712 1.44-6.928 5.872-5.568 12.512l1.776 6.24 5.504 1.712a11.504 11.504 0 0 0 3.36 0.432c17.504 0 67.168-24.944 96.592-51.584 7.728 1.632 16.144 3.152 25.552 4.56l2.88-19.344a380.864 380.864 0 0 1-29.168-5.408l-5.12-1.2z" fill="" p-id="1556"></path><path d="M563.92 644.464v-28.112h63.6v-24.432h-63.6v-20.368h73.472v-24.944H462.72l5.952-2.976 2.576-1.28-0.352-2.864a478.864 478.864 0 0 1-2.016-20.192l-0.48-6.288-5.504 3.04c-7.712 4.224-15.424 8.32-23.136 12.24v-34.128h32.432v-25.456h-32.432v-47.344h-27.36v47.344h-30.656v25.456h30.656v47.552c-10.144 4.752-20.224 9.312-30.224 13.616l-2.768 1.2 3.552 31.36 5.264-2.816c8-4.288 16.08-8.56 24.192-12.8v70.56c0 4.512-1.536 5.344-4.56 5.344-6.4 0-14.272-0.512-23.376-1.488l-5.344-0.592 0.896 5.312c1.184 6.928 2.272 13.936 3.28 21.008l0.48 3.392 3.408 0.112a245.28 245.28 0 0 0 30.192-0.784c10.208-1.12 22.368-7.344 22.368-30.784v-86.192c6.24-3.168 12.496-6.32 18.752-9.456v22.848h78.288v66.656c-13.392-5.664-24.64-15.136-33.52-28.224 2.432-10.096 4.08-20.976 4.88-32.288l0.304-4.352h-27.104l-0.288 3.76c-2.768 36.016-15.76 64.016-38.608 83.232l-4.32 3.632 4.816 2.96c5.936 3.664 11.392 7.552 16.24 11.632l2.752 2.288 2.608-2.448a129.312 129.312 0 0 0 29.088-40.448c16.832 20.912 41.76 31.712 74.128 32.128 21.648 1.024 42.72 1.296 62.88 0.768l2.928-0.08 0.848-2.8c3.44-11.392 5.36-17.568 5.712-18.528l2.288-5.808-6.208 0.24c-35.28 1.344-59.696 1.568-72.304 0.592z" fill="" p-id="1557"></path><path d="M506.912 532.608h81.84v7.376h26.352v-108.688h-134.544v108.688h26.352v-7.376z m81.84-38.688v14.256h-81.84v-14.256h81.84z m0-38.176v14h-81.84v-14h81.84zM826.928 500.032h-115.536v124.464h26.352v-14.512h89.184v-109.952z m-26.352 26.976v56h-62.832v-56h62.832z" fill="" p-id="1558"></path><path d="M732.672 463.376h125.168v171.056c0 11.056-4.32 15.776-14.448 15.776a566.4 566.4 0 0 1-40.24-1.504l-5.504-0.4 1.264 5.392c1.968 8.432 3.312 15.248 3.984 20.224l0.464 3.44 3.456 0.096c13.376 0.336 27.264 0.512 41.664 0.512 16.992 0 37.248-7.104 37.248-40.976V436.144h-153.04v27.232zM724.192 458.272a1117.696 1117.696 0 0 0-36.88-37.312l-2.704-2.576-20.384 18.32 2.976 3.04c8.624 8.848 20.24 21.792 34.544 38.496l2.672 3.12 22.736-20.032-2.96-3.056zM653.36 470.24h27.872v207.712h-27.872z" fill="" p-id="1559"></path></svg>